<?xml version="1.0" standalone="no"?>
<!DOCTYPE svg PUBLIC "-//W3C//DTD SVG 20010904//EN"
 "http://www.w3.org/TR/2001/REC-SVG-20010904/DTD/svg10.dtd">
<svg version="1.0" xmlns="http://www.w3.org/2000/svg"
 width="512.000000pt" height="512.000000pt" viewBox="0 0 512.000000 512.000000"
 preserveAspectRatio="xMidYMid meet">

<g transform="translate(0.000000,512.000000) scale(0.100000,-0.100000)"
fill="#000000" stroke="none">
<path d="M1227 4980 c-48 -12 -95 -36 -125 -64 -45 -40 -52 -67 -52 -205 l0
-130 -282 -3 -283 -3 -57 -28 c-62 -30 -115 -83 -150 -149 -23 -42 -23 -48
-26 -430 l-3 -388 2311 0 2310 0 0 370 c0 347 -1 373 -20 424 -27 72 -88 139
-158 173 l-57 28 -282 3 -283 3 0 130 c0 138 -7 164 -52 206 -103 96 -328 89
-418 -13 -39 -45 -50 -90 -50 -216 l0 -108 -365 0 -365 0 0 122 c0 143 -16
188 -81 233 -43 31 -123 55 -179 55 -56 0 -136 -24 -179 -55 -65 -45 -81 -90
-81 -233 l0 -122 -365 0 -365 0 0 108 c0 126 -11 171 -50 216 -56 63 -197 100
-293 76z m153 -165 l30 -16 0 -109 0 -110 -105 0 -105 0 0 110 0 111 33 14
c43 19 111 19 147 0z m1264 -4 c13 -11 16 -35 16 -122 l0 -109 -100 0 -101 0
3 112 c3 108 4 113 28 126 31 16 132 11 154 -7z m1246 4 l30 -16 0 -109 0
-110 -105 0 -105 0 0 110 c0 109 0 109 28 124 35 20 115 20 152 1z"/>
<path d="M919 3120 l-30 -30 3 -209 c3 -186 5 -212 21 -228 16 -16 43 -18 244
-21 125 -2 237 -1 250 3 45 11 53 48 53 260 l0 197 -29 29 -29 29 -227 0 -227
0 -29 -30z"/>
<path d="M1863 3140 c-39 -16 -43 -40 -43 -259 l0 -210 26 -20 c25 -20 39 -21
256 -21 l229 0 24 25 c25 24 25 24 25 235 0 211 0 211 -25 235 l-24 25 -223
-1 c-123 0 -233 -4 -245 -9z"/>
<path d="M2784 3138 c-39 -18 -44 -50 -44 -259 0 -199 0 -200 25 -224 l24 -25
234 0 c220 0 234 1 255 20 12 11 24 31 28 43 3 13 4 110 2 216 l-3 193 -28 24
c-28 24 -29 24 -250 23 -131 0 -231 -5 -243 -11z"/>
<path d="M4107 3098 c-13 -13 -64 -70 -112 -128 -49 -58 -92 -109 -97 -115 -5
-5 -33 16 -71 53 -47 46 -70 62 -90 62 -40 0 -63 -15 -75 -48 -15 -43 5 -76
99 -169 86 -84 121 -106 158 -96 18 5 258 275 303 342 23 34 23 63 -3 95 -27
34 -78 36 -112 4z"/>
<path d="M934 2258 c-38 -18 -44 -50 -44 -248 0 -201 5 -230 47 -249 35 -16
463 -14 484 2 35 27 39 54 39 247 0 193 -4 220 -39 247 -20 16 -455 17 -487 1z"/>
<path d="M1846 2249 l-26 -20 0 -219 0 -219 26 -20 c25 -20 39 -21 256 -21
l229 0 24 25 c25 24 25 24 25 235 0 211 0 211 -25 235 l-24 25 -229 0 c-217 0
-231 -1 -256 -21z"/>
<path d="M2785 2258 c-43 -23 -45 -33 -45 -247 1 -146 4 -211 13 -222 27 -35
53 -39 277 -39 l222 0 29 29 29 29 0 202 0 202 -29 29 -29 29 -224 0 c-142 0
-230 -5 -243 -12z"/>
<path d="M3696 2249 l-26 -20 0 -219 0 -219 26 -20 c25 -20 39 -21 256 -21
l229 0 24 25 c25 24 25 24 25 235 0 211 0 211 -25 235 l-24 25 -229 0 c-217 0
-231 -1 -256 -21z"/>
<path d="M932 1380 c-12 -5 -27 -21 -32 -35 -6 -15 -10 -114 -10 -220 0 -190
0 -194 24 -222 l24 -28 231 -3 231 -3 30 30 30 29 0 197 c0 204 -7 244 -45
259 -26 10 -457 6 -483 -4z"/>
<path d="M1846 1369 l-26 -20 0 -214 c0 -195 2 -215 19 -236 19 -24 21 -24
255 -27 l236 -3 25 25 25 25 0 211 c0 211 0 211 -25 235 l-24 25 -229 0 c-217
0 -231 -1 -256 -21z"/>
<path d="M2765 1365 c-25 -24 -25 -25 -25 -224 0 -213 5 -241 47 -260 15 -7
104 -11 243 -11 217 0 219 0 247 24 l28 24 3 193 c2 106 1 203 -2 216 -4 12
-16 32 -28 43 -21 19 -35 20 -255 20 l-234 0 -24 -25z"/>
</g>
</svg>
