<?xml version="1.0" standalone="no"?>
<!DOCTYPE svg PUBLIC "-//W3C//DTD SVG 20010904//EN"
 "http://www.w3.org/TR/2001/REC-SVG-20010904/DTD/svg10.dtd">
<svg version="1.0" xmlns="http://www.w3.org/2000/svg"
 width="512.000000pt" height="512.000000pt" viewBox="0 0 512.000000 512.000000"
 preserveAspectRatio="xMidYMid meet">

<g transform="translate(0.000000,512.000000) scale(0.100000,-0.100000)"
fill="#000000" stroke="none">
<path d="M2388 5104 c-42 -22 -51 -50 -56 -171 l-5 -113 -99 0 -100 0 -34 -34
-34 -34 0 -145 c0 -80 4 -157 10 -171 18 -48 64 -66 168 -66 l92 0 -2 -190 -3
-191 -515 -264 c-347 -177 -522 -272 -535 -290 -18 -24 -20 -45 -23 -228 -4
-221 3 -264 45 -296 36 -29 81 -26 148 9 31 17 59 30 61 30 3 0 3 -41 2 -91
l-3 -91 -680 -355 c-374 -195 -689 -363 -700 -374 -19 -18 -20 -33 -20 -258 0
-267 0 -268 72 -292 30 -10 41 -7 108 25 l75 35 0 -549 0 -550 -130 0 c-147 0
-178 -9 -210 -63 -17 -27 -20 -51 -20 -162 0 -111 3 -135 20 -162 41 -68 -180
-63 2540 -63 2720 0 2499 -5 2540 63 17 27 20 51 20 162 0 111 -3 135 -20 162
-32 54 -63 63 -210 63 l-130 0 0 303 c-1 323 -1 327 -51 346 -30 11 -83 -8
-93 -34 -3 -9 -6 -151 -6 -316 l0 -299 -500 0 -500 0 0 850 0 850 133 -69 c72
-39 296 -155 497 -260 l365 -190 2 -128 c2 -70 5 -138 8 -150 8 -33 57 -56 91
-43 46 18 53 37 54 143 l0 97 72 -36 c65 -33 75 -35 108 -25 74 22 75 26 78
280 2 204 1 229 -16 255 -14 24 -155 101 -702 387 l-685 357 -3 91 c-1 50 -1
91 2 91 2 0 30 -13 61 -30 87 -46 144 -36 177 30 15 30 18 65 18 235 0 170 -3
205 -18 235 -15 31 -42 48 -226 143 -114 59 -220 110 -235 113 -39 8 -81 -28
-81 -70 0 -18 6 -40 13 -49 6 -8 95 -59 197 -111 l185 -95 3 -137 c2 -117 0
-136 -12 -131 -8 3 -257 131 -553 283 -470 242 -544 277 -583 277 -39 0 -113
-35 -582 -276 -295 -153 -544 -280 -553 -283 -13 -5 -15 11 -15 129 l0 135
233 120 c744 383 885 452 917 452 24 0 105 -36 261 -115 136 -69 239 -115 257
-115 48 0 78 49 61 100 -9 26 -34 41 -180 115 l-169 86 0 189 0 190 93 0 c103
0 149 18 167 66 6 14 10 91 10 171 l0 145 -34 34 -34 34 -100 0 -99 0 -5 113
c-7 178 -18 187 -230 187 -107 -1 -150 -5 -170 -16z m242 -234 c0 -173 25
-200 185 -200 l95 0 0 -75 0 -75 -103 0 c-167 0 -177 -16 -177 -273 l0 -173
-69 0 -70 1 -3 193 -3 194 -33 29 c-31 28 -35 29 -137 29 l-105 0 0 75 0 75
95 0 c160 0 185 27 185 200 l0 100 70 0 70 0 0 -100z m380 -1609 l445 -229 3
-1291 2 -1291 -205 0 -204 0 -3 532 -3 533 -24 50 c-17 36 -70 95 -185 208
-89 87 -178 167 -198 177 -21 11 -56 20 -78 20 -22 0 -57 -9 -78 -20 -20 -10
-109 -90 -198 -177 -115 -113 -168 -172 -185 -208 l-24 -50 -3 -532 -3 -533
-204 0 -205 0 2 1291 3 1290 445 229 c245 126 447 229 450 229 3 0 205 -102
450 -228z m1485 -1123 l370 -194 3 -138 c1 -82 -1 -136 -7 -134 -5 1 -288 149
-630 327 l-621 324 0 137 0 137 258 -133 c141 -73 424 -220 627 -326z m-2985
318 l0 -134 -255 -132 c-298 -155 -325 -179 -275 -242 42 -54 72 -43 448 159
l82 44 0 -850 0 -851 -500 0 -500 0 0 589 0 590 132 68 c76 39 140 79 151 95
22 29 18 65 -9 92 -37 38 -55 32 -294 -93 -127 -67 -233 -121 -235 -121 -3 0
-5 61 -5 134 l0 135 83 45 c168 91 1162 606 1170 606 4 0 7 -60 7 -134z m999
-1567 c30 -24 72 -24 102 0 l24 19 5 419 5 418 117 -115 c92 -90 119 -124 127
-155 7 -25 11 -198 11 -472 l0 -433 -130 0 -130 0 0 24 c0 39 -41 79 -80 79
-39 0 -80 -40 -80 -79 0 -23 -3 -24 -58 -24 -32 0 -63 5 -70 12 -9 9 -12 139
-12 524 l0 512 68 61 67 61 5 -416 5 -416 24 -19z m2461 -664 l0 -75 -2410 0
-2410 0 0 75 0 75 2410 0 2410 0 0 -75z"/>
<path d="M2475 3026 c-230 -57 -352 -305 -255 -523 27 -61 105 -140 175 -177
56 -29 67 -31 165 -31 98 0 109 2 165 31 318 166 256 629 -93 703 -65 13 -92
13 -157 -3z m3 -472 l-3 -107 -44 34 c-132 101 -119 301 24 377 19 10 20 7 23
-94 1 -57 1 -152 0 -210z m221 280 c57 -49 81 -100 81 -170 0 -88 -35 -150
-112 -199 l-28 -17 0 211 c0 116 4 211 8 211 5 0 27 -16 51 -36z"/>
<path d="M927 1476 c-55 -21 -103 -61 -134 -114 l-28 -47 -3 -237 -3 -238 -25
0 c-33 0 -74 -42 -74 -75 0 -14 11 -37 25 -50 l24 -25 301 0 301 0 24 25 c14
13 25 36 25 50 0 33 -42 75 -75 75 l-25 0 0 223 c-1 239 -6 268 -54 332 -59
77 -188 115 -279 81z m149 -170 l34 -34 0 -216 0 -216 -100 0 -100 0 0 216 0
216 34 34 c25 25 43 34 66 34 23 0 42 -9 66 -34z"/>
<path d="M4027 1476 c-55 -21 -103 -61 -134 -114 l-28 -47 -3 -237 -3 -238
-25 0 c-33 0 -74 -42 -74 -75 0 -14 11 -37 25 -50 l24 -25 301 0 301 0 24 25
c14 13 25 36 25 50 0 33 -42 75 -75 75 l-25 0 0 223 c-1 239 -6 268 -54 332
-59 77 -188 115 -279 81z m149 -170 l34 -34 0 -216 0 -216 -100 0 -100 0 0
216 0 216 34 34 c25 24 43 34 66 34 23 0 42 -10 66 -34z"/>
</g>
</svg>
