<?xml version="1.0" standalone="no"?>
<!DOCTYPE svg PUBLIC "-//W3C//DTD SVG 20010904//EN"
 "http://www.w3.org/TR/2001/REC-SVG-20010904/DTD/svg10.dtd">
<svg version="1.0" xmlns="http://www.w3.org/2000/svg"
 width="512.000000pt" height="512.000000pt" viewBox="0 0 512.000000 512.000000"
 preserveAspectRatio="xMidYMid meet">

<g transform="translate(0.000000,512.000000) scale(0.100000,-0.100000)"
fill="#000000" stroke="none">
<path d="M2387 5110 c-194 -49 -322 -247 -289 -446 18 -106 62 -182 162 -277
87 -83 222 -189 363 -287 107 -74 118 -73 254 20 369 252 474 365 503 541 38
226 -127 436 -352 447 -93 5 -153 -13 -230 -67 l-54 -38 -30 24 c-16 14 -58
39 -92 55 -70 34 -166 45 -235 28z"/>
<path d="M4595 4668 c-11 -6 -55 -45 -97 -86 l-78 -76 -28 27 c-52 50 -113 53
-156 10 -37 -37 -36 -91 4 -136 17 -19 30 -39 30 -44 0 -5 -16 -24 -35 -43
l-35 -34 -35 34 c-29 28 -44 35 -76 35 -34 0 -46 -6 -70 -33 -41 -46 -39 -90
5 -140 l35 -38 -402 -401 -402 -402 -120 60 c-163 80 -283 111 -435 112 -134
0 -208 -16 -319 -70 -90 -45 -220 -163 -283 -261 -25 -37 -71 -107 -104 -157
-158 -241 -408 -414 -704 -489 -167 -43 -198 -54 -309 -111 -241 -125 -420
-340 -497 -600 -35 -120 -44 -324 -20 -465 106 -609 673 -1194 1296 -1336 104
-24 359 -24 452 -1 190 47 350 139 483 279 155 161 224 297 290 570 29 120 27
147 -17 183 -34 29 -66 32 -108 10 -39 -20 -44 -31 -78 -171 -36 -145 -61
-212 -108 -290 -180 -299 -476 -441 -812 -390 -269 41 -510 170 -750 401 -312
300 -479 658 -459 984 7 123 26 194 82 307 74 151 208 279 376 359 41 19 136
51 212 70 222 56 359 119 524 244 107 81 250 231 315 332 30 46 71 109 90 139
80 125 179 207 292 242 84 27 216 26 320 -2 78 -21 236 -87 236 -99 0 -3 -181
-187 -402 -407 l-403 -401 -85 -11 c-157 -20 -258 -69 -356 -175 -73 -78 -109
-143 -134 -243 -50 -194 5 -389 150 -534 171 -171 426 -209 650 -97 166 83
299 294 300 477 l0 45 408 408 409 409 30 -69 c51 -113 74 -202 80 -303 13
-219 -79 -375 -297 -509 -97 -60 -120 -86 -120 -137 0 -37 59 -94 97 -94 41 0
214 105 295 179 84 77 150 176 190 283 27 71 32 100 36 205 7 185 -26 325
-120 506 l-44 86 402 402 403 403 45 -42 c65 -60 132 -56 170 10 25 42 14 84
-34 133 l-40 41 40 39 39 38 45 -41 c56 -52 108 -58 149 -17 46 47 40 109 -18
165 l-35 34 79 81 c82 83 98 115 86 162 -8 34 -394 426 -441 448 -38 18 -52
18 -79 3z m158 -366 l117 -118 -30 -29 -30 -29 -120 119 -120 119 27 28 c15
15 29 28 33 28 3 0 58 -53 123 -118z m-210 -210 l117 -118 -35 -34 -35 -34
-120 119 -120 119 32 33 c18 18 34 33 38 33 3 0 58 -53 123 -118z m-220 -220
l117 -118 -33 -32 -33 -32 -119 120 -119 120 29 30 c16 16 31 30 35 30 3 0 58
-53 123 -118z m-214 -209 l122 -117 -737 -737 -737 -737 -37 56 c-39 61 -112
131 -172 166 l-38 21 733 733 c402 402 734 732 737 732 3 0 61 -53 129 -117z
m-1698 -1525 c224 -104 273 -412 93 -578 -74 -68 -143 -95 -244 -95 -71 0 -94
5 -142 27 -287 133 -281 532 10 655 80 33 202 30 283 -9z"/>
<path d="M1180 4369 c-540 -182 -657 -225 -677 -246 l-23 -22 0 -396 0 -397
-33 9 c-17 4 -70 8 -117 8 -68 0 -94 -5 -131 -23 -74 -36 -125 -87 -161 -160
-30 -60 -33 -75 -33 -152 1 -77 4 -91 35 -148 67 -126 173 -186 315 -180 95 4
158 30 222 94 100 101 103 121 103 728 l0 503 283 97 c155 53 285 96 290 96 4
0 7 -138 7 -306 0 -279 -1 -306 -16 -300 -92 35 -182 30 -273 -15 -117 -58
-185 -169 -185 -300 0 -66 5 -86 32 -142 38 -76 92 -129 171 -166 46 -21 70
-26 136 -26 68 0 89 5 139 29 73 36 131 94 165 166 l26 55 3 593 3 593 -30 29
c-41 41 -76 39 -251 -21z m27 -1004 c33 -22 56 -80 49 -123 -11 -71 -59 -113
-129 -114 -82 -2 -137 53 -137 136 0 38 6 52 33 82 50 54 119 61 184 19z
m-776 -271 c86 -82 39 -220 -80 -232 -39 -3 -57 0 -84 17 -38 23 -67 74 -67
116 0 40 38 102 74 120 48 24 120 15 157 -21z"/>
<path d="M4238 1703 c-14 -9 -31 -27 -37 -40 -7 -16 -11 -156 -11 -410 0 -363
-1 -385 -17 -378 -39 17 -181 18 -227 2 -188 -64 -281 -276 -201 -456 36 -79
113 -151 193 -181 46 -18 72 -21 133 -18 131 8 230 74 291 196 l23 47 3 508
c1 279 4 507 5 507 2 0 50 -16 107 -35 145 -49 183 -46 216 17 20 38 12 87
-19 115 -25 23 -369 143 -407 143 -14 0 -37 -8 -52 -17z m-112 -1032 c35 -21
64 -75 64 -118 0 -60 -72 -133 -133 -133 -103 0 -169 109 -122 201 34 64 128
89 191 50z"/>
<path d="M1554 1451 c-40 -25 -59 -76 -44 -117 13 -33 212 -239 252 -260 72
-38 148 13 148 98 0 27 -19 50 -127 160 -143 143 -169 157 -229 119z"/>
<path d="M3043 1422 c-61 -47 -44 -143 30 -171 34 -13 42 -12 73 3 96 45 67
186 -38 186 -25 0 -52 -8 -65 -18z"/>
<path d="M1124 1330 c-35 -14 -64 -59 -64 -99 0 -33 17 -53 288 -323 l287
-288 43 0 c81 0 126 76 88 148 -18 32 -532 545 -563 561 -25 13 -49 13 -79 1z"/>
</g>
</svg>
