<?xml version="1.0" standalone="no"?>
<!DOCTYPE svg PUBLIC "-//W3C//DTD SVG 20010904//EN"
 "http://www.w3.org/TR/2001/REC-SVG-20010904/DTD/svg10.dtd">
<svg version="1.0" xmlns="http://www.w3.org/2000/svg"
 width="512.000000pt" height="512.000000pt" viewBox="0 0 512.000000 512.000000"
 preserveAspectRatio="xMidYMid meet">

<g transform="translate(0.000000,512.000000) scale(0.100000,-0.100000)"
fill="#000000" stroke="none">
<path d="M1050 5109 c-36 -5 -109 -25 -163 -43 -306 -105 -539 -361 -619 -683
-31 -124 -31 -322 0 -446 80 -322 313 -579 619 -683 296 -100 624 -50 870 135
85 63 102 105 64 152 -18 23 -26 24 -143 25 -100 1 -135 5 -188 23 -100 35
-169 78 -245 155 -231 234 -231 598 0 832 76 77 145 120 245 155 53 18 88 22
188 23 117 1 125 2 143 25 38 47 21 89 -64 153 -80 60 -230 132 -332 158 -94
24 -278 34 -375 19z m260 -160 c71 -11 170 -39 170 -48 0 -3 -35 -18 -78 -33
-319 -113 -529 -460 -483 -800 14 -109 61 -240 116 -323 87 -132 227 -243 367
-293 43 -15 78 -30 78 -33 0 -9 -99 -37 -170 -48 -209 -34 -433 27 -606 162
-216 170 -330 450 -296 721 12 99 54 228 96 300 169 288 490 446 806 395z"/>
<path d="M2500 3191 c-127 -41 -204 -168 -172 -283 11 -40 4 -48 -43 -48 -37
0 -223 -39 -315 -66 -132 -39 -215 -72 -342 -134 -534 -264 -927 -738 -1077
-1301 -46 -170 -62 -292 -68 -516 l-6 -201 -98 -4 c-141 -4 -134 9 -134 -251
0 -198 1 -215 22 -252 25 -47 64 -85 113 -111 34 -18 106 -19 2180 -19 2074 0
2146 1 2180 19 49 26 88 64 113 111 20 36 22 58 25 234 4 209 -2 240 -44 260
-14 6 -62 11 -108 11 l-83 0 -6 202 c-3 112 -13 248 -21 303 -124 787 -700
1430 -1482 1654 -54 16 -146 36 -204 46 -58 9 -115 19 -127 21 -20 4 -21 7
-11 41 27 98 -29 215 -126 265 -43 22 -128 32 -166 19z m111 -180 c16 -16 29
-39 29 -51 0 -28 -52 -80 -80 -80 -28 0 -80 52 -80 80 0 28 52 80 80 80 12 0
35 -13 51 -29z m282 -321 c617 -109 1139 -501 1402 -1052 130 -274 185 -528
185 -859 l0 -139 -1920 0 -1920 0 0 139 c0 328 54 584 180 848 255 536 748
924 1330 1049 228 48 518 54 743 14z m1827 -2341 l0 -131 -29 -29 -29 -29
-2102 0 -2102 0 -29 29 -29 29 0 131 0 131 2160 0 2160 0 0 -131z"/>
<path d="M1660 2273 c-281 -172 -533 -461 -663 -758 -63 -145 -72 -178 -58
-212 12 -31 46 -53 80 -53 34 0 59 34 96 130 119 305 322 554 595 733 113 73
130 90 130 127 0 40 -39 80 -77 80 -15 0 -62 -21 -103 -47z"/>
</g>
</svg>
