<?xml version="1.0" standalone="no"?>
<!DOCTYPE svg PUBLIC "-//W3C//DTD SVG 20010904//EN"
 "http://www.w3.org/TR/2001/REC-SVG-20010904/DTD/svg10.dtd">
<svg version="1.0" xmlns="http://www.w3.org/2000/svg"
 width="512.000000pt" height="512.000000pt" viewBox="0 0 512.000000 512.000000"
 preserveAspectRatio="xMidYMid meet">

<g transform="translate(0.000000,512.000000) scale(0.100000,-0.100000)"
fill="#000000" stroke="none">
<path d="M1685 5043 c-116 -15 -233 -78 -330 -177 -116 -117 -165 -226 -165
-371 0 -241 149 -437 496 -652 15 -9 -155 -12 -769 -12 l-788 -1 -24 -25 -25
-24 0 -371 0 -371 25 -24 c24 -24 28 -25 180 -25 l155 0 0 -1439 0 -1440 26
-20 27 -21 2067 0 2067 0 27 21 26 20 0 1440 0 1439 155 0 c152 0 156 1 180
25 l25 24 0 369 c0 349 -1 371 -19 393 l-19 24 -794 5 -793 5 60 34 c98 56
195 132 277 220 184 196 228 425 121 640 -36 74 -170 209 -243 246 -135 68
-243 86 -380 61 -221 -40 -408 -201 -540 -463 -49 -99 -102 -237 -126 -330
-17 -68 -34 -95 -34 -55 0 34 -90 282 -134 372 -102 203 -230 347 -378 419
-112 56 -240 79 -353 64z m216 -173 c197 -61 356 -264 463 -591 38 -116 85
-316 93 -396 l6 -53 -170 0 c-161 0 -173 1 -257 30 -48 16 -136 52 -194 80
-398 190 -577 457 -468 696 49 106 131 184 244 230 75 31 192 33 283 4z m1632
-18 c132 -65 231 -197 244 -327 17 -160 -100 -339 -312 -480 -98 -66 -261
-145 -381 -185 -83 -29 -96 -30 -254 -30 -92 0 -169 2 -172 5 -7 7 15 128 48
266 68 290 175 511 310 644 108 106 208 146 354 142 85 -2 103 -6 163 -35z
m-1393 -1437 l0 -265 -825 -2 c-454 -2 -882 -3 -952 -3 l-128 0 -3 255 c-1
140 0 260 3 267 4 11 191 13 955 13 l950 -1 0 -264z m2745 -5 l0 -265 -127 0
c-71 0 -499 1 -953 3 l-825 2 0 265 0 265 953 -3 952 -2 0 -265z m-2065 0 l0
-260 -260 0 -260 0 0 260 0 260 260 0 260 0 0 -260z m-680 -1800 l0 -1380
-775 0 -775 0 0 1380 0 1380 775 0 775 0 0 -1380z m680 0 l0 -1380 -260 0
-260 0 0 1380 0 1380 260 0 260 0 0 -1380z m1710 0 l0 -1380 -775 0 -775 0 0
1380 0 1380 775 0 775 0 0 -1380z"/>
<path d="M462 4920 c-20 -19 -22 -31 -22 -120 0 -89 2 -101 22 -120 30 -27 73
-26 103 5 23 22 25 32 25 115 0 83 -2 93 -25 115 -30 31 -73 32 -103 5z"/>
<path d="M4555 4915 c-23 -22 -25 -32 -25 -115 0 -83 2 -93 25 -115 30 -31 73
-32 103 -5 20 19 22 31 22 120 0 89 -2 101 -22 120 -30 27 -73 26 -103 -5z"/>
<path d="M183 4609 c-12 -6 -27 -25 -34 -42 -10 -24 -10 -34 2 -56 24 -42 55
-52 148 -48 73 3 86 7 103 26 23 30 23 73 -1 102 -17 22 -28 24 -108 26 -49 2
-98 -2 -110 -8z"/>
<path d="M638 4604 c-54 -29 -44 -113 14 -133 44 -16 143 -14 183 3 57 24 60
105 5 133 -35 18 -168 16 -202 -3z"/>
<path d="M4280 4607 c-55 -28 -52 -109 5 -133 40 -17 139 -19 183 -3 60 21 68
105 12 134 -36 19 -165 20 -200 2z"/>
<path d="M4725 4595 c-30 -29 -33 -73 -7 -106 17 -19 30 -23 103 -26 93 -4
124 6 148 48 12 22 12 32 2 56 -17 41 -48 53 -142 53 -72 0 -82 -3 -104 -25z"/>
<path d="M460 4400 c-17 -17 -20 -33 -20 -119 0 -96 1 -100 26 -120 33 -26 65
-27 95 -2 22 17 24 29 27 113 3 83 1 96 -18 121 -27 34 -80 37 -110 7z"/>
<path d="M4550 4393 c-19 -25 -21 -38 -18 -121 3 -84 5 -96 27 -113 30 -25 62
-24 95 2 25 20 26 24 26 120 0 86 -3 102 -20 119 -30 30 -83 27 -110 -7z"/>
</g>
</svg>
