<?xml version="1.0" standalone="no"?>
<!DOCTYPE svg PUBLIC "-//W3C//DTD SVG 20010904//EN"
 "http://www.w3.org/TR/2001/REC-SVG-20010904/DTD/svg10.dtd">
<svg version="1.0" xmlns="http://www.w3.org/2000/svg"
 width="512.000000pt" height="512.000000pt" viewBox="0 0 512.000000 512.000000"
 preserveAspectRatio="xMidYMid meet">

<g transform="translate(0.000000,512.000000) scale(0.100000,-0.100000)"
fill="#000000" stroke="none">
<path d="M1300 4835 c-332 -57 -618 -203 -849 -434 -354 -354 -509 -846 -425
-1351 141 -849 986 -1864 2123 -2552 120 -73 397 -228 407 -228 4 0 52 30 108
66 963 629 1717 1591 1941 2474 48 193 65 322 65 506 -1 311 -55 546 -187 807
-200 394 -528 650 -912 711 -259 42 -667 -101 -958 -335 l-53 -42 -52 42
c-168 135 -405 259 -580 302 -194 49 -457 63 -628 34z m2781 -700 c93 -48 90
-194 -5 -239 -67 -31 -136 -9 -176 56 -68 113 62 244 181 183z m190 -457 c229
-120 177 -449 -79 -498 -206 -39 -376 185 -286 377 26 54 93 118 145 136 76
27 148 22 220 -15z"/>
</g>
</svg>
