<?xml version="1.0" standalone="no"?>
<!DOCTYPE svg PUBLIC "-//W3C//DTD SVG 20010904//EN"
 "http://www.w3.org/TR/2001/REC-SVG-20010904/DTD/svg10.dtd">
<svg version="1.0" xmlns="http://www.w3.org/2000/svg"
 width="512.000000pt" height="512.000000pt" viewBox="0 0 512.000000 512.000000"
 preserveAspectRatio="xMidYMid meet">

<g transform="translate(0.000000,512.000000) scale(0.100000,-0.100000)"
fill="#000000" stroke="none">
<path d="M2190 4785 c-256 -40 -487 -159 -676 -349 -323 -323 -438 -766 -314
-1216 27 -98 126 -297 192 -385 189 -252 474 -427 782 -480 114 -19 306 -19
421 1 509 88 918 500 1000 1007 89 552 -190 1082 -696 1321 -214 101 -472 138
-709 101z"/>
<path d="M1479 2217 c-179 -81 -303 -170 -447 -320 -191 -201 -317 -460 -358
-739 -11 -77 -15 -161 -12 -295 3 -181 4 -190 30 -239 28 -52 86 -112 135
-138 77 -39 603 -116 998 -146 215 -16 621 -24 806 -15 l166 7 -46 47 c-242
249 -98 665 249 720 36 6 205 11 375 11 l310 0 17 58 c32 110 147 228 255 262
21 7 42 16 47 21 5 4 -8 44 -32 94 -139 289 -360 512 -645 651 -153 74 -151
74 -254 21 -109 -56 -263 -110 -397 -139 -147 -32 -445 -32 -593 0 -133 29
-254 72 -377 133 -54 27 -105 49 -115 49 -9 0 -59 -20 -112 -43z"/>
<path d="M4044 1156 c-37 -16 -61 -47 -74 -97 -15 -56 2 -96 77 -171 l67 -68
-539 0 c-494 0 -543 -2 -575 -18 -106 -53 -106 -201 0 -254 32 -16 81 -18 574
-18 l539 0 -72 -75 c-72 -76 -77 -88 -72 -160 9 -100 140 -150 227 -86 48 36
378 369 392 396 11 21 15 52 13 99 -1 25 -36 65 -203 234 -112 112 -215 210
-230 218 -34 17 -83 17 -124 0z"/>
</g>
</svg>
