<?xml version="1.0" standalone="no"?>
<!DOCTYPE svg PUBLIC "-//W3C//DTD SVG 20010904//EN"
 "http://www.w3.org/TR/2001/REC-SVG-20010904/DTD/svg10.dtd">
<svg version="1.0" xmlns="http://www.w3.org/2000/svg"
 width="512.000000pt" height="512.000000pt" viewBox="0 0 512.000000 512.000000"
 preserveAspectRatio="xMidYMid meet">

<g transform="translate(0.000000,512.000000) scale(0.100000,-0.100000)"
fill="#000000" stroke="none">
<path d="M2395 5109 c-454 -65 -840 -415 -955 -863 -23 -90 -40 -245 -40 -361
l0 -82 -72 -12 c-192 -32 -354 -179 -403 -366 -13 -50 -15 -162 -15 -752 l0
-693 1650 0 1650 0 0 693 c0 582 -2 702 -15 750 -50 191 -208 337 -400 368
l-75 12 0 82 c0 270 -59 493 -181 691 -68 110 -236 284 -336 348 -248 159
-534 224 -808 185z m335 -339 c253 -52 474 -229 582 -467 47 -105 67 -202 75
-360 l6 -143 -833 0 -833 0 6 143 c4 89 14 170 26 218 63 244 219 436 447 546
163 79 342 101 524 63z m-69 -1644 c312 -67 481 -406 344 -694 -40 -86 -131
-182 -211 -224 -243 -130 -550 -33 -674 212 -40 78 -52 132 -51 224 0 197 108
365 287 447 105 48 195 58 305 35z"/>
<path d="M2490 2788 c-60 -31 -90 -77 -90 -140 0 -68 24 -114 75 -143 52 -31
114 -33 164 -4 55 31 75 65 79 134 3 50 0 66 -20 95 -25 38 -97 80 -138 80
-14 0 -46 -10 -70 -22z"/>
<path d="M345 1636 c-37 -16 -70 -52 -84 -89 -8 -19 -11 -255 -11 -723 0 -769
-3 -738 66 -790 l37 -29 2207 0 2207 0 37 29 c69 52 67 19 64 805 -3 699 -3
710 -24 737 -11 15 -33 37 -48 48 l-27 21 -2197 2 c-1816 2 -2202 0 -2227 -11z
m872 -517 c202 -97 247 -362 90 -523 -72 -73 -143 -99 -252 -94 -130 7 -228
73 -280 191 -55 120 -34 253 56 351 104 114 247 142 386 75z m979 6 c67 -30
123 -82 160 -147 27 -49 29 -61 29 -153 0 -92 -2 -104 -30 -154 -38 -68 -102
-125 -174 -152 -82 -31 -196 -24 -269 16 -153 83 -218 268 -148 422 78 169
266 243 432 168z m994 -1 c248 -112 259 -458 18 -589 -73 -40 -187 -47 -269
-16 -72 27 -136 84 -174 152 -28 50 -30 62 -30 154 0 85 3 106 23 143 88 165
267 230 432 156z m975 9 c71 -23 165 -118 191 -193 55 -161 -15 -332 -168
-411 -65 -34 -184 -38 -261 -9 -79 30 -157 108 -186 185 -58 155 5 331 148
408 89 49 169 54 276 20z"/>
</g>
</svg>
